<?xml version="1.0" encoding="UTF-8"?><svg id="Lag_1" xmlns="http://www.w3.org/2000/svg" viewBox="0 0 1757.17 1269.51"><defs><style>.cls-1{letter-spacing:-.04em;}.cls-2{letter-spacing:.01em;}.cls-3{fill:#fff;}.cls-4{fill:#e2e2e2;}.cls-5{letter-spacing:-.02em;}.cls-6{letter-spacing:-.01em;}.cls-7{fill:#3dcd58;}.cls-8{fill:#e0e0e0;}.cls-9{font-family:ArialRoundedMTBold, 'Arial Rounded MT Bold';font-size:26px;}.cls-10{fill:#d7f5ff;}.cls-11{fill:#464747;}</style></defs><g><rect class="cls-7" x="529.67" y="248.01" width="826" height="1019"/><path d="M1353.17,250.51v1014H532.17V250.51h821m5-5H527.17V1269.51h831V245.51h0Z"/></g><g><rect class="cls-8" x="529.67" y="338.01" width="285" height="929"/><path d="M812.17,340.51v924h-280V340.51h280m5-5h-290v934h290V335.51h0Z"/></g><g><rect class="cls-4" x="813.67" y="694.01" width="542" height="573"/><path d="M1353.17,696.51v568H816.17V696.51h537m5-5H811.17v578h547V691.51h0Z"/></g><g><rect class="cls-10" x="818.5" y="362.5" width="16" height="166"/><path d="M832,365v161h-11v-161h11m5-5h-21v171h21v-171h0Z"/></g><g><rect class="cls-10" x="947.67" y="673.5" width="279" height="20.51"/><path d="M1224.17,676v15.51h-274v-15.51h274m5-5h-284v25.51h284v-25.51h0Z"/></g><path d="M832.17,762.52v153.99h-11.33v-153.99h11.33m5-5h-21.33v163.99h21.33v-163.99h0Z"/><path d="M812.17,976.51v288h-280v-288h280m5-5h-290v298h290v-298h0Z"/><path d="M740.34,958.36v11.33h-153.99v-11.33h153.99m5-5h-163.99v21.33h163.99v-21.33h0Z"/><path d="M798.4,1024.51c7.59,0,13.77,6.18,13.77,13.77v110.46c0,7.59-6.18,13.77-13.77,13.77h-34.46c-7.59,0-13.77-6.18-13.77-13.77v-110.46c0-7.59,6.18-13.77,13.77-13.77h34.46m0-5h-34.46c-10.37,0-18.77,8.4-18.77,18.77v110.46c0,10.37,8.4,18.77,18.77,18.77h34.46c10.37,0,18.77-8.4,18.77-18.77v-110.46c0-10.37-8.4-18.77-18.77-18.77h0Z"/><path d="M652.18,1141.51c8.26,0,14.99,6.72,14.99,14.99v45.02c0,8.26-6.72,14.99-14.99,14.99h-98.02c-8.26,0-14.99-6.72-14.99-14.99v-45.02c0-8.26,6.72-14.99,14.99-14.99h98.02m0-5h-98.02c-11.04,0-19.99,8.95-19.99,19.99v45.02c0,11.04,8.95,19.99,19.99,19.99h98.02c11.04,0,19.99-8.95,19.99-19.99v-45.02c0-11.04-8.95-19.99-19.99-19.99h0Z"/><path d="M798.89,1037.51c6.77,0,12.28,5.51,12.28,12.28v86.44c0,6.77-5.51,12.28-12.28,12.28h-19.44c-6.77,0-12.28-5.51-12.28-12.28v-86.44c0-6.77,5.51-12.28,12.28-12.28h19.44m0-5h-19.44c-9.54,0-17.28,7.74-17.28,17.28v86.44c0,9.54,7.74,17.28,17.28,17.28h19.44c9.54,0,17.28-7.74,17.28-17.28v-86.44c0-9.54-7.74-17.28-17.28-17.28h0Z"/><path d="M572.16,1141.51c7.17,0,13.01,5.84,13.01,13.01v48.98c0,7.17-5.84,13.01-13.01,13.01h-19.98c-7.17,0-13.01-5.84-13.01-13.01v-48.98c0-7.17,5.84-13.01,13.01-13.01h19.98m0-5h-19.98c-9.95,0-18.01,8.06-18.01,18.01v48.98c0,9.95,8.06,18.01,18.01,18.01h19.98c9.95,0,18.01-8.06,18.01-18.01v-48.98c0-9.95-8.06-18.01-18.01-18.01h0Z"/><path d="M810.17,1086.51v6h-24v-6h24m5-5h-34v16h34v-16h0Z"/><path d="M563.17,1172.51v6h-6v-6h6m5-5h-16v16h16v-16h0Z"/><g><rect class="cls-11" x="1414.67" y="397.01" width="340" height="700.05" rx="25.5" ry="25.5"/><path d="M1729.17,399.51c12.68,0,23,10.32,23,23v649.05c0,12.68-10.32,23-23,23h-289c-12.68,0-23-10.32-23-23V422.51c0-12.68,10.32-23,23-23h289m0-5h-289c-15.46,0-28,12.54-28,28v649.05c0,15.46,12.54,28,28,28h289c15.46,0,28-12.54,28-28V422.51c0-15.46-12.54-28-28-28h0Z"/></g><g><rect class="cls-3" x="1439.24" y="427.51" width="296.21" height="592.71" rx="25.5" ry="25.5"/><path d="M1709.94,430.01c12.68,0,23,10.32,23,23V994.72c0,12.68-10.32,23-23,23h-245.21c-12.68,0-23-10.32-23-23V453.01c0-12.68,10.32-23,23-23h245.21m0-5h-245.21c-15.46,0-28,12.54-28,28V994.72c0,15.46,12.54,28,28,28h245.21c15.46,0,28-12.54,28-28V453.01c0-15.46-12.54-28-28-28h0Z"/></g><path d="M1588.57,1042.35c9.7,0,17.6,7.88,17.6,17.57s-7.89,17.57-17.6,17.57-17.6-7.88-17.6-17.57,7.89-17.57,17.6-17.57m0-5c-12.48,0-22.6,10.1-22.6,22.57s10.12,22.57,22.6,22.57,22.6-10.1,22.6-22.57-10.12-22.57-22.6-22.57h0Z"/><path d="M1587.88,407.93c-10.91,0-19.76,1.09-19.76,2.44s8.85,2.44,19.76,2.44,19.76-1.09,19.76-2.44-8.85-2.44-19.76-2.44h0Z"/><g><rect class="cls-10" x="587.67" y="317.5" width="160" height="19.51"/><path d="M745.17,320v14.51h-155v-14.51h155m5-5h-165v24.51h165v-24.51h0Z"/></g><path d="M647.17,344.51v111h-111v-111h111m5-5h-121v121h121v-121h0Z"/><path d="M647.17,459.51v111h-111v-111h111m5-5h-121v121h121v-121h0Z"/><path d="M658.17,364.51v75h-1v-75h1m5-5h-11v85h11v-85h0Z"/><path d="M658.17,477.51v75h-1v-75h1m5-5h-11v85h11v-85h0Z"/><path d="M1236.17,854.51c13.79,0,25,11.21,25,25s-11.21,25-25,25-25-11.21-25-25,11.21-25,25-25m0-5c-16.57,0-30,13.43-30,30s13.43,30,30,30,30-13.43,30-30-13.43-30-30-30h0Z"/><path d="M598.17,637.51v207h-62v-207h62m5-5h-72v217h72v-217h0Z"/><path d="M1353.17,698.51v133h-344v-133h344m5-5h-354v143h354v-143h0Z"/><path d="M1353.17,837.51v427h-161v-427h161m5-5h-171v437h171v-437h0Z"/><path d="M1353.17,841.51v161h-161v-161h161m5-5h-171v171h171v-171h0Z"/><path d="M1353.17,841.51v161h-76v-161h76m5-5h-86v171h86v-171h0Z"/><path d="M1182.17,861.51v122h-2v-122h2m5-5h-12v132h12v-132h0Z"/><path d="M1353.17,1007.51v257h-76v-257h76m5-5h-86v267h86v-267h0Z"/><path d="M1236.17,933.51c13.79,0,25,11.21,25,25s-11.21,25-25,25-25-11.21-25-25,11.21-25,25-25m0-5c-16.57,0-30,13.43-30,30s13.43,30,30,30,30-13.43,30-30-13.43-30-30-30h0Z"/><path d="M1023.65,1071.51c12.97,0,23.52,10.55,23.52,23.52v97.95c0,12.97-10.55,23.52-23.52,23.52h-179.95c-12.97,0-23.52-10.55-23.52-23.52v-97.95c0-12.97,10.55-23.52,23.52-23.52h179.95m0-5h-179.95c-15.75,0-28.52,12.77-28.52,28.52v97.95c0,15.75,12.77,28.52,28.52,28.52h179.95c15.75,0,28.52-12.77,28.52-28.52v-97.95c0-15.75-12.77-28.52-28.52-28.52h0Z"/><path d="M920.17,1045.51v7h-78v-7h78m5-5h-88v17h88v-17h0Z"/><path d="M1016.17,1045.51v7h-78v-7h78m5-5h-88v17h88v-17h0Z"/><path d="M924.17,1235.51v7h-78v-7h78m5-5h-88v17h88v-17h0Z"/><path d="M1020.17,1235.51v7h-78v-7h78m5-5h-88v17h88v-17h0Z"/><g><rect class="cls-3" x="1439.42" y="427.21" width="296.21" height="241.7" rx="25.5" ry="25.5"/><path d="M1710.13,429.71c12.68,0,23,10.32,23,23v190.7c0,12.68-10.32,23-23,23h-245.21c-12.68,0-23-10.32-23-23v-190.7c0-12.68,10.32-23,23-23h245.21m0-5h-245.21c-15.46,0-28,12.54-28,28v190.7c0,15.46,12.54,28,28,28h245.21c15.46,0,28-12.54,28-28v-190.7c0-15.46-12.54-28-28-28h0Z"/></g><text class="cls-9" transform="translate(1477.23 505.4)"><tspan x="0" y="0">Prøv wiser sma</tspan><tspan class="cls-2" x="193.18" y="0">r</tspan><tspan x="204.89" y="0">t </tspan><tspan x="3.83" y="31.2">home </tspan><tspan class="cls-6" x="80.2" y="31.2">a</tspan><tspan x="95.3" y="31.2">pp </tspan><tspan class="cls-6" x="134.3" y="31.2">v</tspan><tspan x="148.05" y="31.2">ed </tspan><tspan class="cls-5" x="186.25" y="31.2">a</tspan><tspan x="201.06" y="31.2">t </tspan><tspan x="-22.88" y="62.4">tryk</tspan><tspan class="cls-1" x="26.71" y="62.4">k</tspan><tspan x="40.62" y="62.4">e på kn</tspan><tspan class="cls-6" x="131.38" y="62.4">a</tspan><tspan x="146.49" y="62.4">pperne</tspan></text></svg>