<?xml version="1.0" encoding="UTF-8"?><svg id="Lag_1" xmlns="http://www.w3.org/2000/svg" viewBox="0 0 1757.17 1270.59"><defs><style>.cls-1{letter-spacing:-.04em;}.cls-2{letter-spacing:.01em;}.cls-3{fill:#fff;}.cls-4{fill:#e2e2e2;}.cls-5{letter-spacing:-.02em;}.cls-6{letter-spacing:-.01em;}.cls-7{fill:#3dcd58;}.cls-8{fill:#e0e0e0;}.cls-9{stroke:#353535;}.cls-9,.cls-10,.cls-11,.cls-12,.cls-13,.cls-14,.cls-15,.cls-16{stroke-miterlimit:10;}.cls-9,.cls-11,.cls-12,.cls-13{fill:none;}.cls-17{fill:#6b6b6b;}.cls-18{fill:#333;}.cls-10{fill:#c9c9c9;opacity:.35;stroke:#e3e5e3;}.cls-19{font-family:ArialRoundedMTBold, 'Arial Rounded MT Bold';font-size:26px;}.cls-11,.cls-14{stroke-width:2px;}.cls-11,.cls-14,.cls-15,.cls-16{stroke:#000;}.cls-12{stroke:#333;}.cls-20{fill:#aeafae;}.cls-13{stroke:#1e1e1e;}.cls-14,.cls-15{fill:#ff0;}.cls-21{fill:#f6fca9;}.cls-15{stroke-width:4px;}.cls-22{fill:#d7f5ff;}.cls-23{fill:#464747;}.cls-16{fill:#444;stroke-width:10px;}</style></defs><g><rect class="cls-7" x="529.67" y="248.01" width="826" height="1019"/><path d="M1353.17,250.51v1014H532.17V250.51h821m5-5H527.17V1269.51h831V245.51h0Z"/></g><g><rect class="cls-8" x="529.67" y="338.01" width="285" height="929"/><path d="M812.17,340.51v924h-280V340.51h280m5-5h-290v934h290V335.51h0Z"/></g><g><rect class="cls-4" x="813.67" y="694.01" width="542" height="573"/><path d="M1353.17,696.51v568H816.17V696.51h537m5-5H811.17v578h547V691.51h0Z"/></g><g><rect class="cls-22" x="818.5" y="362.5" width="16" height="166"/><path d="M832,365v161h-11v-161h11m5-5h-21v171h21v-171h0Z"/></g><g><rect class="cls-22" x="947.67" y="673.5" width="279" height="20.51"/><path d="M1224.17,676v15.51h-274v-15.51h274m5-5h-284v25.51h284v-25.51h0Z"/></g><path d="M832.17,762.52v153.99h-11.33v-153.99h11.33m5-5h-21.33v163.99h21.33v-163.99h0Z"/><path d="M812.17,976.51v288h-280v-288h280m5-5h-290v298h290v-298h0Z"/><path d="M740.34,958.36v11.33h-153.99v-11.33h153.99m5-5h-163.99v21.33h163.99v-21.33h0Z"/><path d="M652.18,1141.51c8.26,0,14.99,6.72,14.99,14.99v45.02c0,8.26-6.72,14.99-14.99,14.99h-98.02c-8.26,0-14.99-6.72-14.99-14.99v-45.02c0-8.26,6.72-14.99,14.99-14.99h98.02m0-5h-98.02c-11.04,0-19.99,8.95-19.99,19.99v45.02c0,11.04,8.95,19.99,19.99,19.99h98.02c11.04,0,19.99-8.95,19.99-19.99v-45.02c0-11.04-8.95-19.99-19.99-19.99h0Z"/><path d="M798.89,1037.51c6.77,0,12.28,5.51,12.28,12.28v86.44c0,6.77-5.51,12.28-12.28,12.28h-19.44c-6.77,0-12.28-5.51-12.28-12.28v-86.44c0-6.77,5.51-12.28,12.28-12.28h19.44m0-5h-19.44c-9.54,0-17.28,7.74-17.28,17.28v86.44c0,9.54,7.74,17.28,17.28,17.28h19.44c9.54,0,17.28-7.74,17.28-17.28v-86.44c0-9.54-7.74-17.28-17.28-17.28h0Z"/><path d="M572.16,1141.51c7.17,0,13.01,5.84,13.01,13.01v48.98c0,7.17-5.84,13.01-13.01,13.01h-19.98c-7.17,0-13.01-5.84-13.01-13.01v-48.98c0-7.17,5.84-13.01,13.01-13.01h19.98m0-5h-19.98c-9.95,0-18.01,8.06-18.01,18.01v48.98c0,9.95,8.06,18.01,18.01,18.01h19.98c9.95,0,18.01-8.06,18.01-18.01v-48.98c0-9.95-8.06-18.01-18.01-18.01h0Z"/><path d="M810.17,1086.51v6h-24v-6h24m5-5h-34v16h34v-16h0Z"/><path d="M563.17,1172.51v6h-6v-6h6m5-5h-16v16h16v-16h0Z"/><g><rect class="cls-23" x="1414.67" y="397.01" width="340" height="700.05" rx="25.5" ry="25.5"/><path d="M1729.17,399.51c12.68,0,23,10.32,23,23v649.05c0,12.68-10.32,23-23,23h-289c-12.68,0-23-10.32-23-23V422.51c0-12.68,10.32-23,23-23h289m0-5h-289c-15.46,0-28,12.54-28,28v649.05c0,15.46,12.54,28,28,28h289c15.46,0,28-12.54,28-28V422.51c0-15.46-12.54-28-28-28h0Z"/></g><g><rect class="cls-3" x="1439.24" y="427.51" width="296.21" height="592.71" rx="25.5" ry="25.5"/><path d="M1709.94,430.01c12.68,0,23,10.32,23,23V994.72c0,12.68-10.32,23-23,23h-245.21c-12.68,0-23-10.32-23-23V453.01c0-12.68,10.32-23,23-23h245.21m0-5h-245.21c-15.46,0-28,12.54-28,28V994.72c0,15.46,12.54,28,28,28h245.21c15.46,0,28-12.54,28-28V453.01c0-15.46-12.54-28-28-28h0Z"/></g><path d="M1588.57,1042.35c9.7,0,17.6,7.88,17.6,17.57s-7.89,17.57-17.6,17.57-17.6-7.88-17.6-17.57,7.89-17.57,17.6-17.57m0-5c-12.48,0-22.6,10.1-22.6,22.57s10.12,22.57,22.6,22.57,22.6-10.1,22.6-22.57-10.12-22.57-22.6-22.57h0Z"/><path d="M1587.88,407.93c-10.91,0-19.76,1.09-19.76,2.44s8.85,2.44,19.76,2.44,19.76-1.09,19.76-2.44-8.85-2.44-19.76-2.44h0Z"/><g><rect class="cls-22" x="587.67" y="317.5" width="160" height="19.51"/><path d="M745.17,320v14.51h-155v-14.51h155m5-5h-165v24.51h165v-24.51h0Z"/></g><path d="M647.17,459.51v111h-111v-111h111m5-5h-121v121h121v-121h0Z"/><path d="M1236.17,854.51c13.79,0,25,11.21,25,25s-11.21,25-25,25-25-11.21-25-25,11.21-25,25-25m0-5c-16.57,0-30,13.43-30,30s13.43,30,30,30,30-13.43,30-30-13.43-30-30-30h0Z"/><path d="M598.17,637.51v207h-62v-207h62m5-5h-72v217h72v-217h0Z"/><path d="M1353.17,698.51v133h-344v-133h344m5-5h-354v143h354v-143h0Z"/><path d="M1353.17,837.51v427h-161v-427h161m5-5h-171v437h171v-437h0Z"/><path d="M1353.17,841.51v161h-161v-161h161m5-5h-171v171h171v-171h0Z"/><path d="M1353.17,841.51v161h-76v-161h76m5-5h-86v171h86v-171h0Z"/><path d="M1182.17,861.51v122h-2v-122h2m5-5h-12v132h12v-132h0Z"/><path d="M1353.17,1007.51v257h-76v-257h76m5-5h-86v267h86v-267h0Z"/><path d="M1236.17,933.51c13.79,0,25,11.21,25,25s-11.21,25-25,25-25-11.21-25-25,11.21-25,25-25m0-5c-16.57,0-30,13.43-30,30s13.43,30,30,30,30-13.43,30-30-13.43-30-30-30h0Z"/><path d="M1023.65,1071.51c12.97,0,23.52,10.55,23.52,23.52v97.95c0,12.97-10.55,23.52-23.52,23.52h-179.95c-12.97,0-23.52-10.55-23.52-23.52v-97.95c0-12.97,10.55-23.52,23.52-23.52h179.95m0-5h-179.95c-15.75,0-28.52,12.77-28.52,28.52v97.95c0,15.75,12.77,28.52,28.52,28.52h179.95c15.75,0,28.52-12.77,28.52-28.52v-97.95c0-15.75-12.77-28.52-28.52-28.52h0Z"/><path d="M920.17,1045.51v7h-78v-7h78m5-5h-88v17h88v-17h0Z"/><path d="M1016.17,1045.51v7h-78v-7h78m5-5h-88v17h88v-17h0Z"/><path d="M924.17,1235.51v7h-78v-7h78m5-5h-88v17h88v-17h0Z"/><path d="M1020.17,1235.51v7h-78v-7h78m5-5h-88v17h88v-17h0Z"/><g><rect class="cls-3" x="1439.42" y="427.21" width="296.21" height="241.7" rx="25.5" ry="25.5"/><path d="M1710.13,429.71c12.68,0,23,10.32,23,23v190.7c0,12.68-10.32,23-23,23h-245.21c-12.68,0-23-10.32-23-23v-190.7c0-12.68,10.32-23,23-23h245.21m0-5h-245.21c-15.46,0-28,12.54-28,28v190.7c0,15.46,12.54,28,28,28h245.21c15.46,0,28-12.54,28-28v-190.7c0-15.46-12.54-28-28-28h0Z"/></g><path d="M798.4,1024.51c7.59,0,13.77,6.18,13.77,13.77v110.46c0,7.59-6.18,13.77-13.77,13.77h-34.46c-7.59,0-13.77-6.18-13.77-13.77v-110.46c0-7.59,6.18-13.77,13.77-13.77h34.46m0-5h-34.46c-10.37,0-18.77,8.4-18.77,18.77v110.46c0,10.37,8.4,18.77,18.77,18.77h34.46c10.37,0,18.77-8.4,18.77-18.77v-110.46c0-10.37-8.4-18.77-18.77-18.77h0Z"/><path d="M658.17,364.51v75h-1v-75h1m5-5h-11v85h11v-85h0Z"/><path d="M658.17,477.51v75h-1v-75h1m5-5h-11v85h11v-85h0Z"/><path d="M647.17,344.51v111h-111v-111h111m5-5h-121v121h121v-121h0Z"/><path d="M657.36,618.69c-6.44-.56-14.72,2.33-20.15,5.68-5.63,3.47-9.58,8.74-13.34,14.06-3.72,5.26,4.94,10.27,8.63,5.05,5.64-7.98,14.22-15.72,24.86-14.79,6.41,.56,6.37-9.44,0-10Z"/><path d="M658.89,598.72c-20.35,0-45.76,9.2-53.35,29.87-2.22,6.05,7.44,8.66,9.64,2.66,5.91-16.12,28.39-22.53,43.7-22.52,6.43,0,6.45-10,0-10Z"/><path d="M773.4,746.74c-.7,4.5-2.52,8.53-6.11,11.48-3.91,3.21-9.39,4.35-14.1,5.92-6.07,2.03-3.47,11.69,2.66,9.64,6.52-2.18,13.27-3.91,18.56-8.52,4.65-4.04,7.7-9.81,8.64-15.87,.98-6.3-8.66-9.01-9.64-2.66Z"/><path d="M796.87,747.69c-2.2,5.25-1.21,11.26-3.69,16.38-2.09,4.3-5.95,7.59-9.57,10.58-8.98,7.4-20.15,16.02-32.55,14.33-6.29-.86-9.02,8.78-2.66,9.64,15.55,2.12,28.09-5.61,39.83-14.92,4.82-3.83,9.7-7.93,12.87-13.3,3.75-6.35,2.66-13.47,5.41-20.04,2.48-5.93-7.19-8.52-9.64-2.66Z"/><path d="M1149.81,866.81c-5.59-6.15-13.61-8.47-21.69-7.17-2.69,.43-4.13,3.75-3.49,6.15,.75,2.85,3.5,3.92,6.15,3.49,4.58-.74,8.93,1.27,11.96,4.6,4.34,4.77,11.4-2.32,7.07-7.07Z"/><path d="M1168.16,863.48c-3.97-8.31-10.95-14.76-19.57-18.03-10.33-3.92-22.48-2.99-33.29-2.47-6.41,.31-6.44,10.31,0,10,16.72-.8,35.85-1.98,44.23,15.55,2.77,5.8,11.4,.74,8.63-5.05Z"/><path d="M1010.35,981.11c-4.89-2.19-7.51-7.64-9.47-12.36-1.04-2.49-3.31-4.27-6.15-3.49-2.35,.65-4.54,3.64-3.49,6.15,2.91,7.01,6.74,15.05,14.07,18.34,2.46,1.1,5.38,.71,6.84-1.79,1.25-2.14,.68-5.73-1.79-6.84Z"/><path d="M1014.88,995.02c-7.73-2.35-14.81-4.96-20.61-10.81-5.07-5.11-8.78-11.31-12.42-17.47-3.27-5.54-11.91-.51-8.63,5.05,4.31,7.3,8.87,14.72,15.09,20.58,6.82,6.43,15.09,9.61,23.92,12.3,6.17,1.88,8.81-7.77,2.66-9.64Z"/><g><path class="cls-11" d="M1060.1,932c.42,.84,1.34,2.35,3.12,3.41,3.9,2.32,8.24,.25,8.62,.06"/><path class="cls-18" d="M1098.77,905.99c-2.03-5.26-10.41-9.15-15.72-9.54-6.58-.48-13.82,4.65-16.47,10.44-1.49,3.26,1.08,6.25,3.73,6.63,5.36,4.23,11.8,5.58,18.45,4.01,5.66-1.34,12.84-4.22,10.01-11.54Z"/><path class="cls-17" d="M1094.17,908.36c-2.02,4.03-6.17,5.12-10.39,5.74-3.22,.47-9.1-.12-10.4-3.75-1.88-5.25-10.32-2.99-8.42,2.32,5.28,14.74,30.34,12.89,36.75,.1,2.51-5.01-5.02-9.43-7.54-4.41Z"/><path class="cls-17" d="M1154.81,934.53c-.33-3.37-2.25-7.41-1.42-10.69,.22-.87,.19-1.66-.02-2.35,3.83-10.42-1.88-21.15-8.8-29.1-8.02-9.22-19.11-14.5-30.83-17.32-24.68-5.93-51.74-5.21-75.52,4.04-11.64,4.53-20.74,11.12-26.05,22.79-3.06,6.72-2.87,13.94-.51,20.54-.73,.73-1.17,1.71-1.03,2.88,.27,2.35,.71,4.73,1.35,7.07-.02,1.38-.12,2.77-.08,4.09,.08,2.55,.53,5.05,1.1,7.54,1.08,4.67,2.39,9.54,5.09,13.57,2.5,3.74,5.83,5.77,9.64,7.6,.39,.71,.79,1.41,1.21,2.1,.96,1.53,2.88,2.43,4.64,2.09,2.91,2.11,6.53,3.23,9.84,4.49,1.08,.41,2.16,.81,3.25,1.2,.13,.08,.27,.16,.41,.24,.74,.45,1.47,.65,2.15,.66,2.55,.89,5.12,1.73,7.7,2.54,4.8,1.5,7.54-5.45,3.36-7.98-4.75-2.87-8.95-6.34-12.59-10.54-1.68-1.94-3.49-4.13-4.62-6.46-.58-1.2-.83-2.48-1.21-3.7,2.09,.9,4.19,1.74,6.27,2.52,11.97,4.47,24.85,6.72,37.62,6.79,15.81,.09,29.84-6.11,44.49-11.33,.47-.17,.93-.33,1.38-.49-.7,1.31-1.35,2.66-2.01,4.02-3.56,7.29-9.06,12.98-16.76,15.85-4.3,1.61-4.1,8.85,1.16,8.57,12.98-.69,24.89-4.4,33.13-15.02,3.68-4.74,6.18-10.32,7.21-16.25,.57-3.29,.77-6.63,.45-9.96Zm-26.87,4.86c-10.43,3.72-21.39,9.07-32.42,10.53-20.46,2.71-43.48-2.8-60.87-13.75-8.01-5.04-15.57-12.62-16.08-22.63-.51-9.75,7.77-19.27,15.99-23.39,18.62-9.33,40.8-11.55,61.28-9.36,11.59,1.24,24.12,3.6,33.98,10.15,6.08,4.03,15.69,13.41,16.35,22.15-.66,.51-1.16,1.31-1.32,2.46-.76,5.17-2.11,10.26-4.53,14.92-2.86,5.5-6.75,6.91-12.36,8.91Z"/><path class="cls-20" d="M1128.55,946.1c-5.75,3.03-12.62,4.05-18.87,5.61-6.95,1.74-13.93,3.77-21.11,4.26-6.81,.46-14.08,.65-20.85-.31-3.62-.51-7.17-1.46-10.66-2.52-2.04-.62-8.28-1.65-9.33-3.54-3.11-4.63-10.3-.55-7.54,4.41,.26,.46,.55,.87,.85,1.25,4.89,7.18,10.36,14.21,16.67,20.19,6.75,6.41,18.13,6.46,26.97,6.51,5.33,.03,11.26,.24,16.83-.66,.18-.02,.37-.05,.56-.09,.04,0,.07-.02,.11-.03,3.72-.66,7.25-1.86,10.31-3.97,10.02-5.64,17.27-15.44,22.82-25.63,2.46-4.51-3.62-8.58-6.74-5.47Z"/><path class="cls-20" d="M1143.68,905.45c-3.58-5.89-5.71-13.49-13.05-15.57-3.53-1-7.05,3.18-4.93,6.41,6.52,9.95,8.66,24.69-2.56,32.11-10.45,6.9-24.58,8.34-36.78,7.66-12.81-.72-25.33-4.4-37.2-9.1-5.25-2.08-11-4.13-14.58-8.75-2.28-2.94-3.62-6.52-3.88-10.19,0-.06,.02-.12,.02-.19,.14-1.92,.27-3.83,.41-5.75,.02-.25,0-.48-.02-.71,0-.05,0-.11,0-.16h0c-.26-3.39-5.71-5.54-8.32-1.87-6.79,9.55-5.87,23.6,2.28,32.1,4.79,5,11.57,7.49,17.92,9.85,7.42,2.76,15,5.09,22.69,6.96,7.82,1.91,15.75,3.35,23.74,4.32,7.96,.97,14.98-.55,22.57-2.83,11.48-3.45,29.48-7.95,33.6-20.95,2.31-7.28,2.1-16.79-1.89-23.37Z"/><path class="cls-10" d="M1130.19,898.63c-.41-.61-.86-1.18-1.33-1.72,2.19-2,2.2-6.49-1.55-7.67-17.18-5.43-35.95-10.66-54.09-10.81-8.44-.07-15.3,2.4-23.19,4.91-7.02,2.23-14.6,3.64-19.8,9.33-10.67,11.68,.19,27.09,11.42,33.42,14.72,8.29,34.15,10.28,50.75,10.41,3.83,.03,7.73,.05,11.52-.55,.54-.09,1.08-.2,1.61-.33,2.85,.84,6.31-.47,8.96-1.3,5.46-1.7,11.43-4.01,14.43-9.23,.25-.43,.47-.87,.67-1.32,1.31-1.36,2.39-2.96,3.09-4.92,2.32-6.46,1.35-14.52-2.49-20.21Zm-52.17-1.44c2.26-.03,3.92,0,5.79,.24,3.78,.48,6.67,.85,9.78,2.7,1.42,.84,3.26,1.97,4.66,4.23,1.73,2.79,1.74,5.61,1.67,6.86-1.9,4.1-5.36,7.34-10.06,8.82-4.4,1.38-9.07,.6-13.48-.33-4.23-.89-6.59-2.29-8.49-6.23-.93-1.93-1.69-4.33-2.63-6.59,2.65-5.56,5.76-9.61,12.76-9.69Zm-18.04,19.88c.03,.07,.06,.14,.09,.21,.47,1,1,1.99,1.6,2.93-1.09-.35-2.16-.73-3.22-1.14,.54-.65,1.05-1.31,1.53-2Z"/><path class="cls-12" d="M1076.49,871.38c-4.13,0-12.36,1.06-16.43,1.73-5.59,.92-16.65,3.75-21.83,6.02-7.36,3.22-21.23,13.21-24.86,20.37-2.34,4.62-2.82,15.81-1.11,20.7,2.26,6.46,11.71,17.22,17.21,21.29,6.87,5.08,23.85,9.59,32.19,11.41,9.22,2.01,28.38,2.55,37.74,1.36,8.04-1.01,23.42-6.92,30.61-10.67,6.14-3.21,17.26-12.5,20.55-18.6,2.64-4.88,2.65-16.86,1.06-22.18-1.6-5.39-10-13.83-14.46-17.25-6.03-4.62-20.77-9.65-28.13-11.53-7.91-2.01-24.38-2.68-32.55-2.66Z"/><path class="cls-13" d="M1067.13,906.53l3.85-4.8c.91-1.13,2.18-1.92,3.59-2.24l7.52-1.68c1.12-.25,2.29-.19,3.39,.17l7.6,2.5c1.39,.46,2.58,1.38,3.38,2.61l2.04,3.16c.45,.69,.76,1.47,.91,2.28h0c.33,1.72-.07,3.5-1.09,4.93l-2.14,2.97c-.82,1.14-1.99,1.97-3.33,2.38l-7.13,2.16c-.8,.24-1.64,.33-2.47,.25l-8.12-.78c-1.45-.14-2.8-.77-3.84-1.78l-3.63-3.52c-2.36-2.3-2.6-6.01-.53-8.59Z"/><path class="cls-9" d="M1011.23,918.64l1.02,27.26s6.45,12.77,9.87,15.99c5.15,4.86,18.17,11.36,24.94,13.42,8.85,2.69,27.13,6.55,36.38,6.68,7.07,.1,21.26-1.44,28.09-3.27,7.24-1.94,22.19-5.95,28-10.68,4.87-3.97,14.22-20.75,14.22-20.75l-1.05-13.41v-24.44"/><g><path class="cls-11" d="M1095.09,885.44c1.08-.5,3.18-1.29,5.56-.99,5.24,.64,6.97,5.88,7.12,6.36"/><path class="cls-11" d="M1094.77,888.96c.31-.25,2.18-1.71,4.53-1.29,2.33,.41,4.19,2.5,4.5,5.18"/><path class="cls-11" d="M1095.78,892.67c.12-.15,.9-1.11,1.94-1.06,1.2,.06,2.41,1.45,2.33,3.37"/></g><path class="cls-11" d="M1064.17,929.15c.07,.32,.5,2.23,2.27,3.2,1.75,.96,4.08,.61,5.74-.93"/><path class="cls-11" d="M1067.04,927.89c0,.19,.06,1.43,.93,2,1,.66,2.81,.26,3.87-1.33"/></g><g><path class="cls-11" d="M673.89,706.56c.42,.84,1.34,2.35,3.12,3.41,3.9,2.32,8.24,.25,8.62,.06"/><path class="cls-18" d="M712.57,680.55c-2.03-5.26-10.41-9.15-15.72-9.54-6.58-.48-13.82,4.65-16.47,10.44-1.49,3.26,1.08,6.25,3.73,6.63,5.36,4.23,11.8,5.58,18.45,4.01,5.66-1.34,12.84-4.22,10.01-11.54Z"/><path class="cls-17" d="M707.96,682.91c-2.02,4.03-6.17,5.12-10.39,5.74-3.22,.47-9.1-.12-10.4-3.75-1.88-5.25-10.32-2.99-8.42,2.32,5.28,14.74,30.34,12.89,36.75,.1,2.51-5.01-5.02-9.43-7.54-4.41Z"/><path class="cls-17" d="M768.6,709.09c-.33-3.37-2.25-7.41-1.42-10.69,.22-.87,.19-1.66-.02-2.35,3.83-10.42-1.88-21.15-8.8-29.1-8.02-9.22-19.11-14.5-30.83-17.32-24.68-5.93-51.74-5.21-75.52,4.04-11.64,4.53-20.74,11.12-26.05,22.79-3.06,6.72-2.87,13.94-.51,20.54-.73,.73-1.17,1.71-1.03,2.88,.27,2.35,.71,4.73,1.35,7.07-.02,1.38-.12,2.77-.08,4.09,.08,2.55,.53,5.05,1.1,7.54,1.08,4.67,2.39,9.54,5.09,13.57,2.5,3.74,5.83,5.77,9.64,7.6,.39,.71,.79,1.41,1.21,2.1,.96,1.53,2.88,2.43,4.64,2.09,2.91,2.11,6.53,3.23,9.84,4.49,1.08,.41,2.16,.81,3.25,1.2,.13,.08,.27,.16,.41,.24,.74,.45,1.47,.65,2.15,.66,2.55,.89,5.12,1.73,7.7,2.54,4.8,1.5,7.54-5.45,3.36-7.98-4.75-2.87-8.95-6.34-12.59-10.54-1.68-1.94-3.49-4.13-4.62-6.46-.58-1.2-.83-2.48-1.21-3.7,2.09,.9,4.19,1.74,6.27,2.52,11.97,4.47,24.85,6.72,37.62,6.79,15.81,.09,29.84-6.11,44.49-11.33,.47-.17,.93-.33,1.38-.49-.7,1.31-1.35,2.66-2.01,4.02-3.56,7.29-9.06,12.98-16.76,15.85-4.3,1.61-4.1,8.85,1.16,8.57,12.98-.69,24.89-4.4,33.13-15.02,3.68-4.74,6.18-10.32,7.21-16.25,.57-3.29,.77-6.63,.45-9.96Zm-26.87,4.86c-10.43,3.72-21.39,9.07-32.42,10.53-20.46,2.71-43.48-2.8-60.87-13.75-8.01-5.04-15.57-12.62-16.08-22.63-.51-9.75,7.77-19.27,15.99-23.39,18.62-9.33,40.8-11.55,61.28-9.36,11.59,1.24,24.12,3.6,33.98,10.15,6.08,4.03,15.69,13.41,16.35,22.15-.66,.51-1.16,1.31-1.32,2.46-.76,5.17-2.11,10.26-4.53,14.92-2.86,5.5-6.75,6.91-12.36,8.91Z"/><path class="cls-20" d="M742.35,720.66c-5.75,3.03-12.62,4.05-18.87,5.61-6.95,1.74-13.93,3.77-21.11,4.26-6.81,.46-14.08,.65-20.85-.31-3.62-.51-7.17-1.46-10.66-2.52-2.04-.62-8.28-1.65-9.33-3.54-3.11-4.63-10.3-.55-7.54,4.41,.26,.46,.55,.87,.85,1.25,4.89,7.18,10.36,14.21,16.67,20.19,6.75,6.41,18.13,6.46,26.97,6.51,5.33,.03,11.26,.24,16.83-.66,.18-.02,.37-.05,.56-.09,.04,0,.07-.02,.11-.03,3.72-.66,7.25-1.86,10.31-3.97,10.02-5.64,17.27-15.44,22.82-25.63,2.46-4.51-3.62-8.58-6.74-5.47Z"/><path class="cls-20" d="M757.47,680.01c-3.58-5.89-5.71-13.49-13.05-15.57-3.53-1-7.05,3.18-4.93,6.41,6.52,9.95,8.66,24.69-2.56,32.11-10.45,6.9-24.58,8.34-36.78,7.66-12.81-.72-25.33-4.4-37.2-9.1-5.25-2.08-11-4.13-14.58-8.75-2.28-2.94-3.62-6.52-3.88-10.19,0-.06,.02-.12,.02-.19,.14-1.92,.27-3.83,.41-5.75,.02-.25,0-.48-.02-.71,0-.05,0-.11,0-.16h0c-.26-3.39-5.71-5.54-8.32-1.87-6.79,9.55-5.87,23.6,2.28,32.1,4.79,5,11.57,7.49,17.92,9.85,7.42,2.76,15,5.09,22.69,6.96,7.82,1.91,15.75,3.35,23.74,4.32,7.96,.97,14.98-.55,22.57-2.83,11.48-3.45,29.48-7.95,33.6-20.95,2.31-7.28,2.1-16.79-1.89-23.37Z"/><path class="cls-10" d="M743.98,673.19c-.41-.61-.86-1.18-1.33-1.72,2.19-2,2.2-6.49-1.55-7.67-17.18-5.43-35.95-10.66-54.09-10.81-8.44-.07-15.3,2.4-23.19,4.91-7.02,2.23-14.6,3.64-19.8,9.33-10.67,11.68,.19,27.09,11.42,33.42,14.72,8.29,34.15,10.28,50.75,10.41,3.83,.03,7.73,.05,11.52-.55,.54-.09,1.08-.2,1.61-.33,2.85,.84,6.31-.47,8.96-1.3,5.46-1.7,11.43-4.01,14.43-9.23,.25-.43,.47-.87,.67-1.32,1.31-1.36,2.39-2.96,3.09-4.92,2.32-6.46,1.35-14.52-2.49-20.21Zm-52.17-1.44c2.26-.03,3.92,0,5.79,.24,3.78,.48,6.67,.85,9.78,2.7,1.42,.84,3.26,1.97,4.66,4.23,1.73,2.79,1.74,5.61,1.67,6.86-1.9,4.1-5.36,7.34-10.06,8.82-4.4,1.38-9.07,.6-13.48-.33-4.23-.89-6.59-2.29-8.49-6.23-.93-1.93-1.69-4.33-2.63-6.59,2.65-5.56,5.76-9.61,12.76-9.69Zm-18.04,19.88c.03,.07,.06,.14,.09,.21,.47,1,1,1.99,1.6,2.93-1.09-.35-2.16-.73-3.22-1.14,.54-.65,1.05-1.31,1.53-2Z"/><path class="cls-12" d="M690.28,645.94c-4.13,0-12.36,1.06-16.43,1.73-5.59,.92-16.65,3.75-21.83,6.02-7.36,3.22-21.23,13.21-24.86,20.37-2.34,4.62-2.82,15.81-1.11,20.7,2.26,6.46,11.71,17.22,17.21,21.29,6.87,5.08,23.85,9.59,32.19,11.41,9.22,2.01,28.38,2.55,37.74,1.36,8.04-1.01,23.42-6.92,30.61-10.67,6.14-3.21,17.26-12.5,20.55-18.6,2.64-4.88,2.65-16.86,1.06-22.18-1.6-5.39-10-13.83-14.46-17.25-6.03-4.62-20.77-9.65-28.13-11.53-7.91-2.01-24.38-2.68-32.55-2.66Z"/><path class="cls-13" d="M680.93,681.09l3.85-4.8c.91-1.13,2.18-1.92,3.59-2.24l7.52-1.68c1.12-.25,2.29-.19,3.39,.17l7.6,2.5c1.39,.46,2.58,1.38,3.38,2.61l2.04,3.16c.45,.69,.76,1.47,.91,2.28h0c.33,1.72-.07,3.5-1.09,4.93l-2.14,2.97c-.82,1.14-1.99,1.97-3.33,2.38l-7.13,2.16c-.8,.24-1.64,.33-2.47,.25l-8.12-.78c-1.45-.14-2.8-.77-3.84-1.78l-3.63-3.52c-2.36-2.3-2.6-6.01-.53-8.59Z"/><path class="cls-9" d="M625.03,693.19l1.02,27.26s6.45,12.77,9.87,15.99c5.15,4.86,18.17,11.36,24.94,13.42,8.85,2.69,27.13,6.55,36.38,6.68,7.07,.1,21.26-1.44,28.09-3.27,7.24-1.94,22.19-5.95,28-10.68,4.87-3.97,14.22-20.75,14.22-20.75l-1.05-13.41v-24.44"/><g><path class="cls-11" d="M708.88,660c1.08-.5,3.18-1.29,5.56-.99,5.24,.64,6.97,5.88,7.12,6.36"/><path class="cls-11" d="M708.57,663.52c.31-.25,2.18-1.71,4.53-1.29,2.33,.41,4.19,2.5,4.5,5.18"/><path class="cls-11" d="M709.57,667.22c.12-.15,.9-1.11,1.94-1.06,1.2,.06,2.41,1.45,2.33,3.37"/></g><path class="cls-11" d="M677.97,703.71c.07,.32,.5,2.23,2.27,3.2,1.75,.96,4.08,.61,5.74-.93"/><path class="cls-11" d="M680.83,702.45c0,.19,.06,1.43,.93,2,1,.66,2.81,.26,3.87-1.33"/></g><path class="cls-16" d="M586.83,444.07s6.12-2.83-4.1-1.48c-5.23,.69-21.69-38.87-11.45-54.57,14.13-21.67,48.52-19.78,42.51-1.57-.37,1.13,2.24-.78,2.24-.78,.25-.11,1.09-.46,2.16-1.04,1-.54,2.21-1.22,3.56-2.39,.73-.64,1.28-1.23,1.65-1.64,0,0,2.95-1.59,1.68-2.31-15.17-8.63-1.51-18.99,2.25-21.34,7.02-4.39,26.93,1.81,28.63,6.22,.46,1.2,.59,2.59,.29,4.2-.16,.84,2.11,.91,2.56,.43,.27-.29,.11-.85,.09-.96-2.75-11.01,12.2-16.49,19.31-15.07,7.07,1.41,17.9,8.01,14.6,18.37-.59,1.84-.5,3.12,.1,3.98,.28,.4,3.2,4.03,2.76,1.39-1.07-6.36,15.52-14.79,24.47,.75,2.17,3.76,6.12,20.25-2.33,21.35-1.46,.19,.92,2.68,.92,2.68s.88,3.07,1.35,1.95c3.83-9.01,15.12,5.42,16.08,9.36,3.77,15.54-5.65,22.61-14.52,19.77-1.68-.54-1.02,3.31-1.02,3.31s-1.72,2.63-.35,2.7c17.92,.92,11.74,17.71,6,22.73-15.07,13.19-35.8-.47-30.96-9.89,.73-1.42-2.49,.94-2.49,.94-.87,.81-1.53,2.42-1.11,2.35,8.18-1.41,15.72,15.55,3.47,21.2-16.08,7.42-31.56-1.88-23.94-13.91,.96-1.52-3.37,.25-3.37,.25s-4.63,1.13-2.92,1.55c12.82,3.16,5.44,28.1-14.5,22.47-18.37-5.18-19.78-21.2-9.75-25.88,.56-.26-1.42-1.74-2.97-1.91-1.29-.14-4.4,.92-3.33,1.23,13.69,3.95,3.19,19.74-14.1,16.2-20.72-4.24-17.9-23.08-7.49-22.57,.41,.02-.88-1.25-1.93-1.45-1.11-.21-2.96,.5-2.53,.78,8.18,5.35-.88,19.85-7.83,23.24-7.42,3.63-26.38,1.88-30.62-9.42-5.62-15-2.99-25.23,10.36-21.2,3.75,1.13,5.78,1.54,6.59,0Z"/><path class="cls-16" d="M660.49,538.04s6.12-2.83-4.1-1.48c-5.23,.69-21.69-38.87-11.45-54.57,14.13-21.67,48.52-19.78,42.51-1.57-.37,1.13,2.24-.78,2.24-.78,.25-.11,1.09-.46,2.16-1.04,1-.54,2.21-1.22,3.56-2.39,.73-.64,1.28-1.23,1.65-1.64,0,0,2.95-1.59,1.68-2.31-15.17-8.63-1.51-18.99,2.25-21.34,7.02-4.39,26.93,1.81,28.63,6.22,.46,1.2,.59,2.59,.29,4.2-.16,.84,2.11,.91,2.56,.43,.27-.29,.11-.85,.09-.96-2.75-11.01,12.2-16.49,19.31-15.07,7.07,1.41,17.9,8.01,14.6,18.37-.59,1.84-.5,3.12,.1,3.98,.28,.4,3.2,4.03,2.76,1.39-1.07-6.36,15.52-14.79,24.47,.75,2.17,3.76,6.12,20.25-2.33,21.35-1.46,.19,.92,2.68,.92,2.68s.88,3.07,1.35,1.95c3.83-9.01,15.12,5.42,16.08,9.36,3.77,15.54-5.65,22.61-14.52,19.77-1.68-.54-1.02,3.31-1.02,3.31s-1.72,2.63-.35,2.7c17.92,.92,11.74,17.71,6,22.73-15.07,13.19-35.8-.47-30.96-9.89,.73-1.42-2.49,.94-2.49,.94-.87,.81-1.53,2.42-1.11,2.35,8.18-1.41,15.72,15.55,3.47,21.2-16.08,7.42-31.56-1.88-23.94-13.91,.96-1.52-3.37,.25-3.37,.25s-4.63,1.13-2.92,1.55c12.82,3.16,5.44,28.1-14.5,22.47-18.37-5.18-19.78-21.2-9.75-25.88,.56-.26-1.42-1.74-2.97-1.91-1.29-.14-4.4,.92-3.33,1.23,13.69,3.95,3.19,19.74-14.1,16.2-20.72-4.24-17.9-23.08-7.49-22.57,.41,.02-.88-1.25-1.93-1.45-1.11-.21-2.96,.5-2.53,.78,8.18,5.35-.88,19.85-7.83,23.24-7.42,3.63-26.38,1.88-30.62-9.42-5.62-15-2.99-25.23,10.36-21.2,3.75,1.13,5.78,1.54,6.59,0Z"/><path class="cls-16" d="M1150,1066.04s6.12-2.83-4.1-1.48c-5.23,.69-21.69-38.87-11.45-54.57,14.13-21.67,48.52-19.78,42.51-1.57-.37,1.13,2.24-.78,2.24-.78,.25-.11,1.09-.46,2.16-1.04,1-.54,2.21-1.22,3.56-2.39,.73-.64,1.28-1.23,1.65-1.64,0,0,2.95-1.59,1.68-2.31-15.17-8.63-1.51-18.99,2.25-21.34,7.02-4.39,26.93,1.81,28.63,6.22,.46,1.2,.59,2.59,.29,4.2-.16,.84,2.11,.91,2.56,.43,.27-.29,.11-.85,.09-.96-2.75-11.01,12.2-16.49,19.31-15.07,7.07,1.41,17.9,8.01,14.6,18.37-.59,1.84-.5,3.12,.1,3.98,.28,.4,3.2,4.03,2.76,1.39-1.07-6.36,15.52-14.79,24.47,.75,2.17,3.76,6.12,20.25-2.33,21.35-1.46,.19,.92,2.68,.92,2.68s.88,3.07,1.35,1.95c3.83-9.01,15.12,5.42,16.08,9.36,3.77,15.54-5.65,22.61-14.52,19.77-1.68-.54-1.02,3.31-1.02,3.31s-1.72,2.63-.35,2.7c17.92,.92,11.74,17.71,6,22.73-15.07,13.19-35.8-.47-30.96-9.89,.73-1.42-2.49,.94-2.49,.94-.87,.81-1.53,2.42-1.11,2.35,8.18-1.41,15.72,15.55,3.47,21.2-16.08,7.42-31.56-1.88-23.94-13.91,.96-1.52-3.37,.25-3.37,.25s-4.63,1.13-2.92,1.55c12.82,3.16,5.44,28.1-14.5,22.47-18.37-5.18-19.78-21.2-9.75-25.88,.56-.26-1.42-1.74-2.97-1.91-1.29-.14-4.4,.92-3.33,1.23,13.69,3.95,3.19,19.74-14.1,16.2-20.72-4.24-17.9-23.08-7.49-22.57,.41,.02-.88-1.25-1.93-1.45-1.11-.21-2.96,.5-2.53,.78,8.18,5.35-.88,19.85-7.83,23.24-7.42,3.63-26.38,1.88-30.62-9.42-5.62-15-2.99-25.23,10.36-21.2,3.75,1.13,5.78,1.54,6.59,0Z"/><path class="cls-16" d="M889,824.04s6.12-2.83-4.1-1.48c-5.23,.69-21.69-38.87-11.45-54.57,14.13-21.67,48.52-19.78,42.51-1.57-.37,1.13,2.24-.78,2.24-.78,.25-.11,1.09-.46,2.16-1.04,1-.54,2.21-1.22,3.56-2.39,.73-.64,1.28-1.23,1.65-1.64,0,0,2.95-1.59,1.68-2.31-15.17-8.63-1.51-18.99,2.25-21.34,7.02-4.39,26.93,1.81,28.63,6.22,.46,1.2,.59,2.59,.29,4.2-.16,.84,2.11,.91,2.56,.43,.27-.29,.11-.85,.09-.96-2.75-11.01,12.2-16.49,19.31-15.07,7.07,1.41,17.9,8.01,14.6,18.37-.59,1.84-.5,3.12,.1,3.98,.28,.4,3.2,4.03,2.76,1.39-1.07-6.36,15.52-14.79,24.47,.75,2.17,3.76,6.12,20.25-2.33,21.35-1.46,.19,.92,2.68,.92,2.68s.88,3.07,1.35,1.95c3.83-9.01,15.12,5.42,16.08,9.36,3.77,15.54-5.65,22.61-14.52,19.77-1.68-.54-1.02,3.31-1.02,3.31s-1.72,2.63-.35,2.7c17.92,.92,11.74,17.71,6,22.73-15.07,13.19-35.8-.47-30.96-9.89,.73-1.42-2.49,.94-2.49,.94-.87,.81-1.53,2.42-1.11,2.35,8.18-1.41,15.72,15.55,3.47,21.2-16.08,7.42-31.56-1.88-23.94-13.91,.96-1.52-3.37,.25-3.37,.25s-4.63,1.13-2.92,1.55c12.82,3.16,5.44,28.1-14.5,22.47-18.37-5.18-19.78-21.2-9.75-25.88,.56-.26-1.42-1.74-2.97-1.91-1.29-.14-4.4,.92-3.33,1.23,13.69,3.95,3.19,19.74-14.1,16.2-20.72-4.24-17.9-23.08-7.49-22.57,.41,.02-.88-1.25-1.93-1.45-1.11-.21-2.96,.5-2.53,.78,8.18,5.35-.88,19.85-7.83,23.24-7.42,3.63-26.38,1.88-30.62-9.42-5.62-15-2.99-25.23,10.36-21.2,3.75,1.13,5.78,1.54,6.59,0Z"/><text class="cls-19" transform="translate(1480.22 479.93)"><tspan x="0" y="0">Med wiser sma</tspan><tspan class="cls-2" x="188.02" y="0">r</tspan><tspan x="199.72" y="0">t </tspan><tspan x="-1.15" y="31.2">home </tspan><tspan class="cls-6" x="75.21" y="31.2">a</tspan><tspan x="90.32" y="31.2">p</tspan><tspan class="cls-1" x="106.57" y="31.2">p</tspan><tspan x="121.83" y="31.2">, </tspan><tspan class="cls-6" x="136.47" y="31.2">f</tspan><tspan x="144.78" y="31.2">år du </tspan><tspan x="30.04" y="62.4">bes</tspan><tspan class="cls-1" x="75.83" y="62.4">k</tspan><tspan x="89.75" y="62.4">ed hvis </tspan><tspan x=".13" y="93.6">rø</tspan><tspan class="cls-5" x="27.22" y="93.6">g</tspan><tspan x="42.82" y="93.6">alarmen </tspan><tspan class="cls-5" x="152.81" y="93.6">g</tspan><tspan x="168.42" y="93.6">år i </tspan><tspan class="cls-5" x="6.18" y="124.8">g</tspan><tspan x="21.79" y="124.8">an</tspan><tspan class="cls-5" x="52.94" y="124.8">g</tspan><tspan x="68.54" y="124.8">, så du </tspan><tspan class="cls-1" x="157.68" y="124.8">k</tspan><tspan x="171.59" y="124.8">an </tspan><tspan x="11.93" y="156">handle hu</tspan><tspan class="cls-2" x="135.45" y="156">r</tspan><tspan x="147.15" y="156">tigt.</tspan></text><g><rect class="cls-7" x="526.19" y="249.09" width="826" height="1019"/><path d="M1349.69,251.59v1014H528.69V251.59h821m5-5H523.69V1270.59h831V246.59h0Z"/></g><g><rect class="cls-21" x="526.19" y="339.09" width="285" height="929"/><path d="M808.69,341.59v924h-280V341.59h280m5-5h-290v934h290V336.59h0Z"/></g><g><rect class="cls-21" x="810.19" y="695.09" width="542" height="573"/><path d="M1349.69,697.59v568H812.69V697.59h537m5-5H807.69v578h547V692.59h0Z"/></g><g><rect class="cls-22" x="815.19" y="367.09" width="16" height="166"/><path d="M828.69,369.59v161h-11v-161h11m5-5h-21v171h21v-171h0Z"/></g><g><rect class="cls-22" x="944.19" y="679.09" width="279" height="16"/><path d="M1220.69,681.59v11h-274v-11h274m5-5h-284v21h284v-21h0Z"/></g><path d="M828.69,763.6v153.99h-11.33v-153.99h11.33m5-5h-21.33v163.99h21.33v-163.99h0Z"/><path d="M808.69,977.59v288h-280v-288h280m5-5h-290v298h290v-298h0Z"/><path d="M736.85,959.44v11.33h-153.99v-11.33h153.99m5-5h-163.99v21.33h163.99v-21.33h0Z"/><path d="M794.92,1025.59c7.59,0,13.77,6.18,13.77,13.77v110.46c0,7.59-6.18,13.77-13.77,13.77h-34.46c-7.59,0-13.77-6.18-13.77-13.77v-110.46c0-7.59,6.18-13.77,13.77-13.77h34.46m0-5h-34.46c-10.37,0-18.77,8.4-18.77,18.77v110.46c0,10.37,8.4,18.77,18.77,18.77h34.46c10.37,0,18.77-8.4,18.77-18.77v-110.46c0-10.37-8.4-18.77-18.77-18.77h0Z"/><path d="M648.7,1142.59c8.26,0,14.99,6.72,14.99,14.99v45.02c0,8.26-6.72,14.99-14.99,14.99h-98.02c-8.26,0-14.99-6.72-14.99-14.99v-45.02c0-8.26,6.72-14.99,14.99-14.99h98.02m0-5h-98.02c-11.04,0-19.99,8.95-19.99,19.99v45.02c0,11.04,8.95,19.99,19.99,19.99h98.02c11.04,0,19.99-8.95,19.99-19.99v-45.02c0-11.04-8.95-19.99-19.99-19.99h0Z"/><path d="M795.41,1038.59c6.77,0,12.28,5.51,12.28,12.28v86.44c0,6.77-5.51,12.28-12.28,12.28h-19.44c-6.77,0-12.28-5.51-12.28-12.28v-86.44c0-6.77,5.51-12.28,12.28-12.28h19.44m0-5h-19.44c-9.54,0-17.28,7.74-17.28,17.28v86.44c0,9.54,7.74,17.28,17.28,17.28h19.44c9.54,0,17.28-7.74,17.28-17.28v-86.44c0-9.54-7.74-17.28-17.28-17.28h0Z"/><path d="M568.68,1142.59c7.17,0,13.01,5.84,13.01,13.01v48.98c0,7.17-5.84,13.01-13.01,13.01h-19.98c-7.17,0-13.01-5.84-13.01-13.01v-48.98c0-7.17,5.84-13.01,13.01-13.01h19.98m0-5h-19.98c-9.95,0-18.01,8.06-18.01,18.01v48.98c0,9.95,8.06,18.01,18.01,18.01h19.98c9.95,0,18.01-8.06,18.01-18.01v-48.98c0-9.95-8.06-18.01-18.01-18.01h0Z"/><path d="M806.69,1087.59v6h-24v-6h24m5-5h-34v16h34v-16h0Z"/><path d="M559.69,1173.59v6h-6v-6h6m5-5h-16v16h16v-16h0Z"/><g><rect class="cls-23" x="1411.19" y="398.09" width="340" height="700.05" rx="25.5" ry="25.5"/><path d="M1725.69,400.59c12.68,0,23,10.32,23,23v649.05c0,12.68-10.32,23-23,23h-289c-12.68,0-23-10.32-23-23V423.59c0-12.68,10.32-23,23-23h289m0-5h-289c-15.46,0-28,12.54-28,28v649.05c0,15.46,12.54,28,28,28h289c15.46,0,28-12.54,28-28V423.59c0-15.46-12.54-28-28-28h0Z"/></g><g><rect class="cls-3" x="1435.75" y="428.59" width="296.21" height="592.71" rx="25.5" ry="25.5"/><path d="M1706.46,431.09c12.68,0,23,10.32,23,23V995.8c0,12.68-10.32,23-23,23h-245.21c-12.68,0-23-10.32-23-23V454.09c0-12.68,10.32-23,23-23h245.21m0-5h-245.21c-15.46,0-28,12.54-28,28V995.8c0,15.46,12.54,28,28,28h245.21c15.46,0,28-12.54,28-28V454.09c0-15.46-12.54-28-28-28h0Z"/></g><path d="M1585.09,1043.43c9.7,0,17.6,7.88,17.6,17.57s-7.89,17.57-17.6,17.57-17.6-7.88-17.6-17.57,7.89-17.57,17.6-17.57m0-5c-12.48,0-22.6,10.1-22.6,22.57s10.12,22.57,22.6,22.57,22.6-10.1,22.6-22.57-10.12-22.57-22.6-22.57h0Z"/><path d="M1584.39,409.01c-10.91,0-19.76,1.09-19.76,2.44s8.85,2.44,19.76,2.44,19.76-1.09,19.76-2.44-8.85-2.44-19.76-2.44h0Z"/><g><rect class="cls-22" x="584.19" y="322.09" width="160" height="16"/><path d="M741.69,324.59v11h-155v-11h155m5-5h-165v21h165v-21h0Z"/></g><path d="M643.69,345.59v111h-111v-111h111m5-5h-121v121h121v-121h0Z"/><path d="M643.69,460.59v111h-111v-111h111m5-5h-121v121h121v-121h0Z"/><path d="M654.69,365.59v75h-1v-75h1m5-5h-11v85h11v-85h0Z"/><path d="M654.69,478.59v75h-1v-75h1m5-5h-11v85h11v-85h0Z"/><path d="M1232.69,855.59c13.79,0,25,11.21,25,25s-11.21,25-25,25-25-11.21-25-25,11.21-25,25-25m0-5c-16.57,0-30,13.43-30,30s13.43,30,30,30,30-13.43,30-30-13.43-30-30-30h0Z"/><path d="M594.69,638.59v207h-62v-207h62m5-5h-72v217h72v-217h0Z"/><path d="M1349.69,699.59v133h-344v-133h344m5-5h-354v143h354v-143h0Z"/><path d="M1349.69,838.59v427h-161v-427h161m5-5h-171v437h171v-437h0Z"/><path d="M1349.69,842.59v161h-161v-161h161m5-5h-171v171h171v-171h0Z"/><path d="M1349.69,842.59v161h-76v-161h76m5-5h-86v171h86v-171h0Z"/><path d="M1178.69,862.59v122h-2v-122h2m5-5h-12v132h12v-132h0Z"/><path d="M1349.69,1008.59v257h-76v-257h76m5-5h-86v267h86v-267h0Z"/><path d="M1232.69,934.59c13.79,0,25,11.21,25,25s-11.21,25-25,25-25-11.21-25-25,11.21-25,25-25m0-5c-16.57,0-30,13.43-30,30s13.43,30,30,30,30-13.43,30-30-13.43-30-30-30h0Z"/><path d="M1020.16,1072.59c12.97,0,23.52,10.55,23.52,23.52v97.95c0,12.97-10.55,23.52-23.52,23.52h-179.95c-12.97,0-23.52-10.55-23.52-23.52v-97.95c0-12.97,10.55-23.52,23.52-23.52h179.95m0-5h-179.95c-15.75,0-28.52,12.77-28.52,28.52v97.95c0,15.75,12.77,28.52,28.52,28.52h179.95c15.75,0,28.52-12.77,28.52-28.52v-97.95c0-15.75-12.77-28.52-28.52-28.52h0Z"/><path d="M916.69,1046.59v7h-78v-7h78m5-5h-88v17h88v-17h0Z"/><path d="M1012.69,1046.59v7h-78v-7h78m5-5h-88v17h88v-17h0Z"/><path d="M920.69,1236.59v7h-78v-7h78m5-5h-88v17h88v-17h0Z"/><path d="M1016.69,1236.59v7h-78v-7h78m5-5h-88v17h88v-17h0Z"/><g><rect class="cls-3" x="1435.94" y="428.29" width="296.21" height="241.7" rx="25.5" ry="25.5"/><path d="M1706.64,430.79c12.68,0,23,10.32,23,23v190.7c0,12.68-10.32,23-23,23h-245.21c-12.68,0-23-10.32-23-23v-190.7c0-12.68,10.32-23,23-23h245.21m0-5h-245.21c-15.46,0-28,12.54-28,28v190.7c0,15.46,12.54,28,28,28h245.21c15.46,0,28-12.54,28-28v-190.7c0-15.46-12.54-28-28-28h0Z"/></g><text class="cls-19" transform="translate(1477.13 508.98)"><tspan x="0" y="0">Med wiser sma</tspan><tspan class="cls-2" x="188.02" y="0">r</tspan><tspan x="199.72" y="0">t </tspan><tspan x="-6.11" y="31.2">home </tspan><tspan class="cls-6" x="70.26" y="31.2">a</tspan><tspan x="85.36" y="31.2">p</tspan><tspan class="cls-1" x="101.61" y="31.2">p</tspan><tspan x="116.87" y="31.2">, </tspan><tspan class="cls-1" x="131.51" y="31.2">k</tspan><tspan x="145.42" y="31.2">an du </tspan><tspan x="2.81" y="62.4">sty</tspan><tspan class="cls-5" x="40.19" y="62.4">r</tspan><tspan x="50.93" y="62.4">e l</tspan><tspan class="cls-6" x="79.93" y="62.4">y</tspan><tspan x="93.68" y="62.4">set i hele </tspan><tspan x="-2.06" y="93.6">huset, f</tspan><tspan class="cls-5" x="91.39" y="93.6">r</tspan><tspan x="102.13" y="93.6">a </tspan><tspan class="cls-6" x="124.08" y="93.6">a</tspan><tspan x="139.19" y="93.6">ppen.</tspan></text><path class="cls-15" d="M736.07,688.94c-9.77-13.24-29.33-16.9-44.59-13.03-15.47,3.92-28.34,16.84-31.1,32.73-1.7,9.82,.66,19.66,5.11,28.45,4.04,7.98,15.35,17.33,13.2,27.03-1.39,6.27,8.25,8.95,9.64,2.66,3.59-16.2-12.1-26.62-16.71-40.77-4.74-14.56,1.03-30.06,14.66-37.44,12.63-6.84,33.27-5.81,42.14,6.78,4.38,6.22,8.28,14.28,8.73,21.97,.45,7.61-3.11,13.86-7.31,19.9-4.23,6.07-8.82,11.84-11.53,18.8-2.64,6.78-2.91,14.07-2.6,21.27-7.63-.87-15.3-1.02-22.98-.17-7.57,.84-13.04,3.94-13.57,12.34-.49,7.68,3.79,13.79,11.34,15.41,4.2,.9,8.66,.58,12.91,.59,2.77,0,10.95-1.4,13.16,.68,1.13,1.07,.19,3.11-.87,4.33-.2,1.2-.89,1.68-2.08,1.45-1.23,.09-2.47,.17-3.7,.23-4.94,.23-9.89,.18-14.82-.16-3.36-.23-7.12-1.26-10.32,.24-3.3,1.54-4.28,5.05-4.32,8.43-.21,16.71,17.43,25.99,31.73,19.01,5.78-2.82,.72-11.45-5.05-8.63-6,2.93-13.37,.49-15.88-5.88-.06-.15-.47-2.28-.69-3.55,.27,.03,.55,.04,.83,.08,3.7,.33,7.39,.56,11.11,.59,5.37,.06,13.95,1.06,18.54-2.3,3.65-2.68,7.07-10.14,6.39-14.58-2.08-13.6-22.11-9.64-31.37-9.96-3.36-.12-6.57-.31-6.97-4.38-.44-4.51,4.07-4.03,7.41-4.27,7.76-.56,15.54-.2,23.21,1.09,2.96,.5,6.57-1.29,6.33-4.82-.63-9.26-1.24-18.72,3.28-27.17,3.75-7.01,9.26-12.88,13.11-19.83,8.61-15.55,3.75-33.41-6.36-47.11Z"/><path class="cls-15" d="M954.5,834.94c-9.77-13.24-29.33-16.9-44.59-13.03-15.47,3.92-28.34,16.84-31.1,32.73-1.7,9.82,.66,19.66,5.11,28.45,4.04,7.98,15.35,17.33,13.2,27.03-1.39,6.27,8.25,8.95,9.64,2.66,3.59-16.2-12.1-26.62-16.71-40.77-4.74-14.56,1.03-30.06,14.66-37.44,12.63-6.84,33.27-5.81,42.14,6.78,4.38,6.22,8.28,14.28,8.73,21.97,.45,7.61-3.11,13.86-7.31,19.9-4.23,6.07-8.82,11.84-11.53,18.8-2.64,6.78-2.91,14.07-2.6,21.27-7.63-.87-15.3-1.02-22.98-.17-7.57,.84-13.04,3.94-13.57,12.34-.49,7.68,3.79,13.79,11.34,15.41,4.2,.9,8.66,.58,12.91,.59,2.77,0,10.95-1.4,13.16,.68,1.13,1.07,.19,3.11-.87,4.33-.2,1.2-.89,1.68-2.08,1.45-1.23,.09-2.47,.17-3.7,.23-4.94,.23-9.89,.18-14.82-.16-3.36-.23-7.12-1.26-10.32,.24-3.3,1.54-4.28,5.05-4.32,8.43-.21,16.71,17.43,25.99,31.73,19.01,5.78-2.82,.72-11.45-5.05-8.63-6,2.93-13.37,.49-15.88-5.88-.06-.15-.47-2.28-.69-3.55,.27,.03,.55,.04,.83,.08,3.7,.33,7.39,.56,11.11,.59,5.37,.06,13.95,1.06,18.54-2.3,3.65-2.68,7.07-10.14,6.39-14.58-2.08-13.6-22.11-9.64-31.37-9.96-3.36-.12-6.57-.31-6.97-4.38-.44-4.51,4.07-4.03,7.41-4.27,7.76-.56,15.54-.2,23.21,1.09,2.96,.5,6.57-1.29,6.33-4.82-.63-9.26-1.24-18.72,3.28-27.17,3.75-7.01,9.26-12.88,13.11-19.83,8.61-15.55,3.75-33.41-6.36-47.11Z"/><path class="cls-15" d="M675.32,1013.68c-7.57-10.26-22.72-13.09-34.55-10.09-11.98,3.04-21.95,13.04-24.09,25.36-1.32,7.61,.51,15.23,3.96,22.04,3.13,6.18,11.89,13.42,10.23,20.94-1.08,4.86,6.39,6.93,7.47,2.06,2.78-12.55-9.38-20.62-12.95-31.58-3.67-11.28,.8-23.29,11.35-29,9.78-5.3,25.77-4.5,32.64,5.25,3.39,4.82,6.41,11.06,6.76,17.02,.35,5.9-2.41,10.74-5.67,15.42-3.27,4.7-6.83,9.17-8.93,14.56-2.05,5.25-2.25,10.9-2.01,16.48-5.91-.67-11.85-.79-17.8-.13-5.87,.65-10.1,3.05-10.52,9.56-.38,5.95,2.94,10.69,8.78,11.94,3.25,.7,6.71,.45,10,.45,2.15,0,8.48-1.09,10.19,.52,.88,.83,.15,2.41-.67,3.36-.15,.93-.69,1.3-1.61,1.13-.95,.07-1.91,.13-2.87,.18-3.83,.18-7.66,.14-11.48-.12-2.6-.18-5.52-.98-8,.18-2.56,1.2-3.31,3.91-3.35,6.53-.16,12.95,13.5,20.14,24.58,14.73,4.48-2.19,.56-8.87-3.91-6.69-4.65,2.27-10.36,.38-12.3-4.55-.05-.12-.37-1.76-.53-2.75,.21,.02,.43,.03,.64,.06,2.86,.26,5.73,.43,8.6,.46,4.16,.04,10.81,.82,14.36-1.78,2.83-2.08,5.48-7.86,4.95-11.29-1.61-10.53-17.13-7.47-24.3-7.72-2.61-.09-5.09-.24-5.4-3.39-.34-3.5,3.15-3.12,5.74-3.31,6.01-.44,12.04-.15,17.98,.84,2.29,.38,5.09-1,4.9-3.74-.49-7.17-.96-14.5,2.54-21.05,2.91-5.43,7.17-9.98,10.15-15.36,6.67-12.05,2.91-25.89-4.93-36.5Z"/><path class="cls-15" d="M954.59,1091.87c-7.57-10.26-22.72-13.09-34.55-10.09-11.98,3.04-21.95,13.04-24.09,25.36-1.32,7.61,.51,15.23,3.96,22.04,3.13,6.18,11.89,13.42,10.23,20.94-1.08,4.86,6.39,6.93,7.47,2.06,2.78-12.55-9.38-20.62-12.95-31.58-3.67-11.28,.8-23.29,11.35-29,9.78-5.3,25.77-4.5,32.64,5.25,3.39,4.82,6.41,11.06,6.76,17.02,.35,5.9-2.41,10.74-5.67,15.42-3.27,4.7-6.83,9.17-8.93,14.56-2.05,5.25-2.25,10.9-2.01,16.48-5.91-.67-11.85-.79-17.8-.13-5.87,.65-10.1,3.05-10.52,9.56-.38,5.95,2.94,10.69,8.78,11.94,3.25,.7,6.71,.45,10,.45,2.15,0,8.48-1.09,10.19,.52,.88,.83,.15,2.41-.67,3.36-.15,.93-.69,1.3-1.61,1.13-.95,.07-1.91,.13-2.87,.18-3.83,.18-7.66,.14-11.48-.12-2.6-.18-5.52-.98-8,.18-2.56,1.2-3.31,3.91-3.35,6.53-.16,12.95,13.5,20.14,24.58,14.73,4.48-2.19,.56-8.87-3.91-6.69-4.65,2.27-10.36,.38-12.3-4.55-.05-.12-.37-1.76-.53-2.75,.21,.02,.43,.03,.64,.06,2.86,.26,5.73,.43,8.6,.46,4.16,.04,10.81,.82,14.36-1.78,2.83-2.08,5.48-7.86,4.95-11.29-1.61-10.53-17.13-7.47-24.3-7.72-2.61-.09-5.09-.24-5.4-3.39-.34-3.5,3.15-3.12,5.74-3.31,6.01-.44,12.04-.15,17.98,.84,2.29,.38,5.09-1,4.9-3.74-.49-7.17-.96-14.5,2.54-21.05,2.91-5.43,7.17-9.98,10.15-15.36,6.67-12.05,2.91-25.89-4.93-36.5Z"/><path class="cls-15" d="M882.59,553.87c-7.57-10.26-22.72-13.09-34.55-10.09-11.98,3.04-21.95,13.04-24.09,25.36-1.32,7.61,.51,15.23,3.96,22.04,3.13,6.18,11.89,13.42,10.23,20.94-1.08,4.86,6.39,6.93,7.47,2.06,2.78-12.55-9.38-20.62-12.95-31.58-3.67-11.28,.8-23.29,11.35-29,9.78-5.3,25.77-4.5,32.64,5.25,3.39,4.82,6.41,11.06,6.76,17.02,.35,5.9-2.41,10.74-5.67,15.42-3.27,4.7-6.83,9.17-8.93,14.56-2.05,5.25-2.25,10.9-2.01,16.48-5.91-.67-11.85-.79-17.8-.13-5.87,.65-10.1,3.05-10.52,9.56-.38,5.95,2.94,10.69,8.78,11.94,3.25,.7,6.71,.45,10,.45,2.15,0,8.48-1.09,10.19,.52,.88,.83,.15,2.41-.67,3.36-.15,.93-.69,1.3-1.61,1.13-.95,.07-1.91,.13-2.87,.18-3.83,.18-7.66,.14-11.48-.12-2.6-.18-5.52-.98-8,.18-2.56,1.2-3.31,3.91-3.35,6.53-.16,12.95,13.5,20.14,24.58,14.73,4.48-2.19,.56-8.87-3.91-6.69-4.65,2.27-10.36,.38-12.3-4.55-.05-.12-.37-1.76-.53-2.75,.21,.02,.43,.03,.64,.06,2.86,.26,5.73,.43,8.6,.46,4.16,.04,10.81,.82,14.36-1.78,2.83-2.08,5.48-7.86,4.95-11.29-1.61-10.53-17.13-7.47-24.3-7.72-2.61-.09-5.09-.24-5.4-3.39-.34-3.5,3.15-3.12,5.74-3.31,6.01-.44,12.04-.15,17.98,.84,2.29,.38,5.09-1,4.9-3.74-.49-7.17-.96-14.5,2.54-21.05,2.91-5.43,7.17-9.98,10.15-15.36,6.67-12.05,2.91-25.89-4.93-36.5Z"/><path class="cls-14" d="M1328.55,868.25c-5.13-6.95-15.39-8.87-23.41-6.84-8.12,2.06-14.87,8.84-16.32,17.18-.89,5.15,.34,10.32,2.68,14.93,2.12,4.19,8.06,9.09,6.93,14.19-.73,3.29,4.33,4.7,5.06,1.4,1.88-8.51-6.35-13.97-8.77-21.4-2.49-7.64,.54-15.78,7.69-19.65,6.63-3.59,17.46-3.05,22.12,3.56,2.3,3.26,4.34,7.49,4.58,11.53,.23,4-1.63,7.28-3.84,10.45-2.22,3.18-4.63,6.21-6.05,9.87-1.39,3.56-1.53,7.38-1.36,11.16-4-.46-8.03-.53-12.06-.09-3.97,.44-6.84,2.07-7.12,6.47-.26,4.03,1.99,7.24,5.95,8.09,2.2,.47,4.54,.3,6.78,.31,1.45,0,5.75-.74,6.91,.35,.6,.56,.1,1.63-.46,2.27-.1,.63-.47,.88-1.09,.76-.65,.05-1.29,.09-1.94,.12-2.59,.12-5.19,.09-7.78-.08-1.76-.12-3.74-.66-5.42,.12-1.73,.81-2.24,2.65-2.27,4.43-.11,8.77,9.15,13.64,16.65,9.98,3.03-1.48,.38-6.01-2.65-4.53-3.15,1.54-7.02,.26-8.33-3.08-.03-.08-.25-1.19-.36-1.86,.14,.02,.29,.02,.43,.04,1.94,.18,3.88,.29,5.83,.31,2.82,.03,7.32,.56,9.73-1.21,1.92-1.41,3.71-5.32,3.35-7.65-1.09-7.14-11.61-5.06-16.46-5.23-1.77-.06-3.45-.16-3.66-2.3-.23-2.37,2.14-2.11,3.89-2.24,4.07-.3,8.16-.1,12.18,.57,1.55,.26,3.45-.68,3.32-2.53-.33-4.86-.65-9.82,1.72-14.26,1.97-3.68,4.86-6.76,6.88-10.41,4.52-8.16,1.97-17.54-3.34-24.73Z"/><path class="cls-14" d="M1328.44,1101.4c-5.13-6.95-15.39-8.87-23.41-6.84-8.12,2.06-14.87,8.84-16.32,17.18-.89,5.15,.34,10.32,2.68,14.93,2.12,4.19,8.06,9.09,6.93,14.19-.73,3.29,4.33,4.7,5.06,1.4,1.88-8.51-6.35-13.97-8.77-21.4-2.49-7.64,.54-15.78,7.69-19.65,6.63-3.59,17.46-3.05,22.12,3.56,2.3,3.26,4.34,7.49,4.58,11.53,.23,4-1.63,7.28-3.84,10.45-2.22,3.18-4.63,6.21-6.05,9.87-1.39,3.56-1.53,7.38-1.36,11.16-4-.46-8.03-.53-12.06-.09-3.97,.44-6.84,2.07-7.12,6.47-.26,4.03,1.99,7.24,5.95,8.09,2.2,.47,4.54,.3,6.78,.31,1.45,0,5.75-.74,6.91,.35,.6,.56,.1,1.63-.46,2.27-.1,.63-.47,.88-1.09,.76-.65,.05-1.29,.09-1.94,.12-2.59,.12-5.19,.09-7.78-.08-1.76-.12-3.74-.66-5.42,.12-1.73,.81-2.24,2.65-2.27,4.43-.11,8.77,9.15,13.64,16.65,9.98,3.03-1.48,.38-6.01-2.65-4.53-3.15,1.54-7.02,.26-8.33-3.08-.03-.08-.25-1.19-.36-1.86,.14,.02,.29,.02,.43,.04,1.94,.18,3.88,.29,5.83,.31,2.82,.03,7.32,.56,9.73-1.21,1.92-1.41,3.71-5.32,3.35-7.65-1.09-7.14-11.61-5.06-16.46-5.23-1.77-.06-3.45-.16-3.66-2.3-.23-2.37,2.14-2.11,3.89-2.24,4.07-.3,8.16-.1,12.18,.57,1.55,.26,3.45-.68,3.32-2.53-.33-4.86-.65-9.82,1.72-14.26,1.97-3.68,4.86-6.76,6.88-10.41,4.52-8.16,1.97-17.54-3.34-24.73Z"/><path class="cls-14" d="M986.63,817.71c-2.52-1.48-5.25-.4-6.84,1.79-1.64,2.27-4.54,5.12-6.84,6.76-2.2,1.56-3.24,4.36-1.79,6.84,1.27,2.17,4.63,3.36,6.84,1.79,4.09-2.9,7.49-6.28,10.43-10.34,1.58-2.19,.38-5.57-1.79-6.84Z"/><path class="cls-14" d="M916.99,786.39c-2.82,.79-3.94,3.5-3.47,6.16,.49,2.76,.53,6.82,.1,9.61-.41,2.67,.88,5.37,3.67,6.05,2.45,.6,5.63-.99,6.05-3.67,.76-4.96,.69-9.75-.18-14.69-.47-2.66-3.74-4.14-6.16-3.47Z"/><path class="cls-14" d="M855.2,815.79c-1.67,2.4-.81,5.2,1.25,6.96,2.13,1.81,4.75,4.93,6.2,7.35,1.38,2.32,4.1,3.58,6.68,2.33,2.27-1.1,3.72-4.35,2.33-6.68-2.57-4.31-5.67-7.96-9.49-11.21-2.06-1.75-5.52-.81-6.96,1.25Z"/><path class="cls-14" d="M849.84,883.6c1.76,2.33,4.7,2.38,7.01,.97,2.38-1.46,6.15-2.99,8.91-3.62,2.63-.6,4.67-2.79,4.28-5.63-.34-2.5-2.98-4.88-5.63-4.28-4.89,1.11-9.32,2.93-13.6,5.55-2.3,1.41-2.48,5-.97,7.01Z"/><path class="cls-14" d="M973.44,872.7c-.84,2.8,.85,5.2,3.35,6.23,2.59,1.06,6.04,3.21,8.17,5.06,2.03,1.77,5,2.13,7.07,.14,1.82-1.75,2.18-5.29,.14-7.07-3.78-3.3-7.86-5.8-12.5-7.71-2.5-1.03-5.5,.94-6.23,3.35Z"/><path class="cls-14" d="M768.72,666.24c-2.52-1.48-5.25-.4-6.84,1.79-1.64,2.27-4.54,5.12-6.84,6.76-2.2,1.56-3.24,4.36-1.79,6.84,1.27,2.17,4.63,3.36,6.84,1.79,4.09-2.9,7.49-6.28,10.43-10.34,1.58-2.19,.38-5.57-1.79-6.84Z"/><path class="cls-14" d="M699.08,634.92c-2.82,.79-3.94,3.5-3.47,6.16,.49,2.76,.53,6.82,.1,9.61-.41,2.67,.88,5.37,3.67,6.05,2.45,.6,5.63-.99,6.05-3.67,.76-4.96,.69-9.75-.18-14.69-.47-2.66-3.74-4.14-6.16-3.47Z"/><path class="cls-14" d="M637.29,664.32c-1.67,2.4-.81,5.2,1.25,6.96,2.13,1.81,4.75,4.93,6.2,7.35,1.38,2.32,4.1,3.58,6.68,2.33,2.27-1.1,3.72-4.35,2.33-6.68-2.57-4.31-5.67-7.96-9.49-11.21-2.06-1.75-5.52-.81-6.96,1.25Z"/><path class="cls-14" d="M631.93,732.13c1.76,2.33,4.7,2.38,7.01,.97,2.38-1.46,6.15-2.99,8.91-3.62,2.63-.6,4.67-2.79,4.28-5.63-.34-2.5-2.98-4.88-5.63-4.28-4.89,1.11-9.32,2.93-13.6,5.55-2.3,1.41-2.48,5-.97,7.01Z"/><path class="cls-14" d="M755.53,721.23c-.84,2.8,.85,5.2,3.35,6.23,2.59,1.06,6.04,3.21,8.17,5.06,2.03,1.77,5,2.13,7.07,.14,1.82-1.75,2.18-5.29,.14-7.07-3.78-3.3-7.86-5.8-12.5-7.71-2.5-1.03-5.5,.94-6.23,3.35Z"/><path class="cls-14" d="M917.57,540.55c-2.23-1.3-4.64-.35-6.04,1.58-1.45,2-4,4.52-6.04,5.96-1.94,1.38-2.86,3.85-1.58,6.04,1.12,1.92,4.08,2.97,6.04,1.58,3.61-2.56,6.61-5.54,9.2-9.13,1.4-1.93,.33-4.92-1.58-6.04Z"/><path class="cls-14" d="M856.1,512.9c-2.49,.7-3.48,3.09-3.06,5.44,.43,2.43,.47,6.02,.09,8.49-.36,2.35,.78,4.74,3.24,5.34,2.16,.53,4.97-.87,5.34-3.24,.67-4.38,.61-8.6-.16-12.96-.42-2.35-3.3-3.66-5.44-3.06Z"/><path class="cls-14" d="M801.55,538.86c-1.48,2.12-.72,4.59,1.1,6.15,1.88,1.6,4.19,4.35,5.47,6.49,1.22,2.04,3.62,3.16,5.9,2.05,2-.97,3.28-3.84,2.05-5.9-2.27-3.81-5.01-7.02-8.38-9.9-1.82-1.55-4.88-.72-6.15,1.1Z"/><path class="cls-14" d="M796.82,598.72c1.56,2.06,4.15,2.1,6.18,.85,2.11-1.29,5.43-2.64,7.86-3.19,2.32-.53,4.12-2.46,3.78-4.97-.3-2.2-2.63-4.31-4.97-3.78-4.32,.98-8.23,2.59-12,4.9-2.03,1.25-2.19,4.42-.85,6.18Z"/><path class="cls-14" d="M905.93,589.1c-.74,2.47,.75,4.59,2.96,5.5,2.29,.94,5.34,2.83,7.22,4.47,1.79,1.56,4.42,1.88,6.24,.12,1.6-1.54,1.93-4.67,.12-6.24-3.34-2.91-6.94-5.12-11.04-6.8-2.21-.91-4.86,.83-5.5,2.96Z"/><path class="cls-14" d="M702.73,1001.07c-2.03-1.19-4.22-.32-5.5,1.44-1.32,1.82-3.65,4.12-5.5,5.43-1.77,1.25-2.61,3.51-1.44,5.5,1.02,1.75,3.72,2.7,5.5,1.44,3.29-2.33,6.02-5.05,8.38-8.32,1.27-1.76,.3-4.48-1.44-5.5Z"/><path class="cls-14" d="M646.73,975.89c-2.26,.63-3.17,2.81-2.79,4.96,.39,2.22,.42,5.48,.08,7.73-.33,2.14,.71,4.31,2.95,4.86,1.97,.48,4.53-.79,4.86-2.95,.61-3.99,.56-7.84-.15-11.81-.38-2.14-3.01-3.33-4.96-2.79Z"/><path class="cls-14" d="M597.05,999.53c-1.34,1.93-.65,4.19,1,5.6,1.71,1.46,3.82,3.96,4.98,5.91,1.11,1.86,3.29,2.88,5.37,1.87,1.82-.88,2.99-3.5,1.87-5.37-2.07-3.47-4.56-6.4-7.63-9.01-1.65-1.41-4.44-.65-5.6,1Z"/><path class="cls-14" d="M592.74,1054.05c1.42,1.87,3.78,1.92,5.63,.78,1.92-1.18,4.95-2.4,7.16-2.91,2.11-.48,3.75-2.24,3.44-4.53-.27-2.01-2.4-3.92-4.53-3.44-3.94,.89-7.49,2.35-10.93,4.47-1.85,1.14-2,4.02-.78,5.63Z"/><path class="cls-14" d="M692.12,1045.29c-.68,2.25,.68,4.18,2.69,5.01,2.08,.85,4.86,2.58,6.57,4.07,1.63,1.42,4.02,1.71,5.69,.11,1.46-1.41,1.76-4.25,.11-5.69-3.04-2.65-6.32-4.66-10.05-6.2-2.01-.82-4.43,.76-5.01,2.69Z"/><path class="cls-14" d="M985.9,1075.8c-2.03-1.19-4.22-.32-5.5,1.44-1.32,1.82-3.65,4.12-5.5,5.43-1.77,1.25-2.61,3.51-1.44,5.5,1.02,1.75,3.72,2.7,5.5,1.44,3.29-2.33,6.02-5.05,8.38-8.32,1.27-1.76,.3-4.48-1.44-5.5Z"/><path class="cls-14" d="M929.91,1050.61c-2.26,.63-3.17,2.81-2.79,4.96,.39,2.22,.42,5.48,.08,7.73-.33,2.14,.71,4.31,2.95,4.86,1.97,.48,4.53-.79,4.86-2.95,.61-3.99,.56-7.84-.15-11.81-.38-2.14-3.01-3.33-4.96-2.79Z"/><path class="cls-14" d="M880.22,1074.26c-1.34,1.93-.65,4.19,1,5.6,1.71,1.46,3.82,3.96,4.98,5.91,1.11,1.86,3.29,2.88,5.37,1.87,1.82-.88,2.99-3.5,1.87-5.37-2.07-3.47-4.56-6.4-7.63-9.01-1.65-1.41-4.44-.65-5.6,1Z"/><path class="cls-14" d="M875.92,1128.78c1.42,1.87,3.78,1.92,5.63,.78,1.92-1.18,4.95-2.4,7.16-2.91,2.11-.48,3.75-2.24,3.44-4.53-.27-2.01-2.4-3.92-4.53-3.44-3.94,.89-7.49,2.35-10.93,4.47-1.85,1.14-2,4.02-.78,5.63Z"/><path class="cls-14" d="M975.3,1120.02c-.68,2.25,.68,4.18,2.69,5.01,2.08,.85,4.86,2.58,6.57,4.07,1.63,1.42,4.02,1.71,5.69,.11,1.46-1.41,1.76-4.25,.11-5.69-3.04-2.65-6.32-4.66-10.05-6.2-2.01-.82-4.43,.76-5.01,2.69Z"/><path class="cls-14" d="M1351.5,858.53c-1.53-.89-3.18-.24-4.14,1.09-.99,1.37-2.74,3.1-4.14,4.09-1.33,.94-1.96,2.64-1.09,4.14,.77,1.32,2.8,2.04,4.14,1.09,2.48-1.76,4.53-3.8,6.31-6.26,.96-1.32,.23-3.37-1.09-4.14Z"/><path class="cls-14" d="M1309.36,839.58c-1.7,.48-2.38,2.12-2.1,3.73,.3,1.67,.32,4.13,.06,5.82-.25,1.61,.53,3.25,2.22,3.66,1.48,.36,3.41-.6,3.66-2.22,.46-3,.42-5.9-.11-8.89-.29-1.61-2.27-2.51-3.73-2.1Z"/><path class="cls-14" d="M1271.96,857.38c-1.01,1.45-.49,3.15,.76,4.21,1.29,1.1,2.87,2.98,3.75,4.45,.84,1.4,2.48,2.16,4.04,1.41,1.37-.66,2.25-2.63,1.41-4.04-1.56-2.61-3.43-4.82-5.74-6.78-1.24-1.06-3.34-.49-4.21,.76Z"/><path class="cls-14" d="M1268.72,898.41c1.07,1.41,2.84,1.44,4.24,.59,1.44-.89,3.72-1.81,5.39-2.19,1.59-.36,2.82-1.69,2.59-3.41-.21-1.51-1.81-2.95-3.41-2.59-2.96,.67-5.64,1.77-8.23,3.36-1.39,.86-1.5,3.03-.59,4.24Z"/><path class="cls-14" d="M1343.51,891.81c-.51,1.69,.51,3.15,2.03,3.77,1.57,.64,3.66,1.94,4.95,3.06,1.23,1.07,3.03,1.29,4.28,.08,1.1-1.06,1.32-3.2,.08-4.28-2.29-2-4.76-3.51-7.57-4.66-1.51-.62-3.33,.57-3.77,2.03Z"/><path class="cls-14" d="M1349.89,1089.41c-1.53-.89-3.18-.24-4.14,1.09-.99,1.37-2.74,3.1-4.14,4.09-1.33,.94-1.96,2.64-1.09,4.14,.77,1.32,2.8,2.04,4.14,1.09,2.48-1.76,4.53-3.8,6.31-6.26,.96-1.32,.23-3.37-1.09-4.14Z"/><path class="cls-14" d="M1307.75,1070.46c-1.7,.48-2.38,2.12-2.1,3.73,.3,1.67,.32,4.13,.06,5.82-.25,1.61,.53,3.25,2.22,3.66,1.48,.36,3.41-.6,3.66-2.22,.46-3,.42-5.9-.11-8.89-.29-1.61-2.27-2.51-3.73-2.1Z"/><path class="cls-14" d="M1270.36,1088.25c-1.01,1.45-.49,3.15,.76,4.21,1.29,1.1,2.87,2.98,3.75,4.45,.84,1.4,2.48,2.16,4.04,1.41,1.37-.66,2.25-2.63,1.41-4.04-1.56-2.61-3.43-4.82-5.74-6.78-1.24-1.06-3.34-.49-4.21,.76Z"/><path class="cls-14" d="M1267.11,1129.28c1.07,1.41,2.84,1.44,4.24,.59,1.44-.89,3.72-1.81,5.39-2.19,1.59-.36,2.82-1.69,2.59-3.41-.21-1.51-1.81-2.95-3.41-2.59-2.96,.67-5.64,1.77-8.23,3.36-1.39,.86-1.5,3.03-.59,4.24Z"/><path class="cls-14" d="M1341.91,1122.69c-.51,1.69,.51,3.15,2.03,3.77,1.57,.64,3.66,1.94,4.95,3.06,1.23,1.07,3.03,1.29,4.28,.08,1.1-1.06,1.32-3.2,.08-4.28-2.29-2-4.76-3.51-7.57-4.66-1.51-.62-3.33,.57-3.77,2.03Z"/></svg>